<svg width="29" height="32" viewBox="0 0 29 32" fill="none" xmlns="http://www.w3.org/2000/svg">
<path d="M28.451 8.89095H23.4573C22.6571 7.50544 21.5531 6.31257 20.2195 5.40866L23.1165 2.50428L20.6122 0L16.752 3.86015C15.9296 3.66011 15.0998 3.55638 14.2255 3.55638C13.3512 3.55638 12.5214 3.66011 11.7212 3.86015L7.83885 0L5.33457 2.50428L8.21672 5.40125C6.89789 6.30516 5.80134 7.49803 5.00116 8.88354H0V12.4399H3.71938C3.63047 13.0252 3.55638 13.6106 3.55638 14.2181V15.9963H0V19.5527H3.55638V21.3309C3.55638 21.9384 3.63047 22.5237 3.71938 23.1091H0V26.6654H4.99375C6.84603 29.8514 10.2765 32 14.2255 32C18.1746 32 21.605 29.8514 23.4573 26.6654H28.451V23.1091H24.7316C24.8206 22.5237 24.8946 21.9384 24.8946 21.3309V19.5527H28.451V15.9963H24.8946V14.2181C24.8946 13.6106 24.8206 13.0252 24.7316 12.4399H28.451V8.89095Z" fill="white"/>
</svg>
