<svg width="32" height="32" viewBox="0 0 32 32" fill="none" xmlns="http://www.w3.org/2000/svg">
<path d="M16 3.23077C19.4077 3.23077 22.6154 4.56154 25.0308 6.96923C27.4385 9.38462 28.7692 12.5923 28.7692 16C28.7692 19.4077 27.4385 22.6154 25.0308 25.0308C22.6154 27.4385 19.4077 28.7692 16 28.7692C12.5923 28.7692 9.38462 27.4385 6.96923 25.0308C4.56154 22.6154 3.23077 19.4077 3.23077 16C3.23077 12.5923 4.56154 9.38462 6.96923 6.96923C9.38462 4.56154 12.5923 3.23077 16 3.23077ZM16 0C7.16154 0 0 7.16154 0 16C0 24.8385 7.16154 32 16 32C24.8385 32 32 24.8385 32 16C32 7.16154 24.8385 0 16 0Z" fill="#FF0000"/>
<path d="M24 21.7615L21.7615 24L16 18.2385L10.2385 24L8 21.7615L13.7615 16L8 10.2385L10.2385 8L16 13.7615L21.7615 8L24 10.2385L18.2385 16L24 21.7615Z" fill="#FF0000"/>
</svg>
